<?xml version="1.0" encoding="utf-8"?>
<!-- Generator: Adobe Illustrator 16.0.0, SVG Export Plug-In . SVG Version: 6.00 Build 0)  -->
<!DOCTYPE svg PUBLIC "-//W3C//DTD SVG 1.1//EN" "http://www.w3.org/Graphics/SVG/1.1/DTD/svg11.dtd">
<svg version="1.1" id="Layer_1" xmlns="http://www.w3.org/2000/svg" xmlns:xlink="http://www.w3.org/1999/xlink" x="0px" y="0px"
	 width="1328.934px" height="1327.434px" viewBox="0 0 1328.934 1327.434" enable-background="new 0 0 1328.934 1327.434"
	 xml:space="preserve">
<g id="Layer_1_1_">
	<path fill="none" stroke="#A0CB9B" stroke-width="4" stroke-miterlimit="10" d="M666.336,173.272"/>
	<g>
		
			<rect x="358.47" y="738.276" fill="none" stroke="#A2252A" stroke-width="2" stroke-miterlimit="10" width="23.95" height="66.33"/>
		<path fill="none" stroke="#A2252A" stroke-width="2" stroke-miterlimit="10" d="M350.831,530.396v50.869h-21.61
			c0.103-11.271,1.41-22.989,10.33-37.319C342.59,539.066,346.68,534.426,350.831,530.396z"/>
		<path fill="none" stroke="#A2252A" stroke-width="2" stroke-miterlimit="10" d="M411.661,581.267H390.06v-50.869
			c4.143,4.028,8.24,8.67,11.28,13.55C410.25,558.276,411.56,569.995,411.661,581.267z"/>
		
			<rect x="390.06" y="588.276" fill="none" stroke="#A2252A" stroke-width="2" stroke-miterlimit="10" width="21.61" height="67.67"/>
		
			<rect x="390.06" y="664.097" fill="none" stroke="#A2252A" stroke-width="2" stroke-miterlimit="10" width="21.61" height="66.512"/>
		<path fill="none" stroke="#A2252A" stroke-width="2" stroke-miterlimit="10" d="M411.67,738.276c0,37.18,0,66.33,0,66.33h-21.61
			v-66.33H411.67z"/>
		<path fill="none" stroke="#A2252A" stroke-width="2" stroke-miterlimit="10" d="M382.42,523.585v57.681h-23.95v-57.681
			c5.48-4.521,11.74-9.31,11.74-9.31h0.46C370.67,514.276,376.93,519.066,382.42,523.585z"/>
		
			<rect x="358.47" y="588.276" fill="none" stroke="#A2252A" stroke-width="2" stroke-miterlimit="10" width="23.95" height="67.67"/>
		
			<rect x="358.47" y="664.097" fill="none" stroke="#A2252A" stroke-width="2" stroke-miterlimit="10" width="23.95" height="66.512"/>
		
			<rect x="329.22" y="588.188" fill="none" stroke="#A2252A" stroke-width="2" stroke-miterlimit="10" width="21.61" height="67.671"/>
		
			<rect x="329.22" y="664.007" fill="none" stroke="#A2252A" stroke-width="2" stroke-miterlimit="10" width="21.61" height="66.51"/>
		<path fill="none" stroke="#A2252A" stroke-width="2" stroke-miterlimit="10" d="M350.831,738.188c0,37.181,0,66.329,0,66.329
			h-21.61v-66.329H350.831z"/>
	</g>
	<path fill="none" stroke="#A1A844" stroke-width="2" stroke-miterlimit="10" d="M501.669,536.939"/>
	
		<line fill="none" stroke="#A1A844" stroke-width="2" stroke-miterlimit="10" x1="285.336" y1="888.271" x2="311.336" y2="888.271"/>
	
		<line fill="none" stroke="#A1A844" stroke-width="2" stroke-miterlimit="10" x1="428.336" y1="888.271" x2="454.337" y2="888.271"/>
	
		<line fill="none" stroke="#A1A844" stroke-width="2" stroke-miterlimit="10" x1="428.336" y1="595.846" x2="454.337" y2="595.846"/>
	<g>
		<path fill="none" stroke="#A2252A" stroke-width="2" stroke-miterlimit="10" d="M582.419,644.979
			c6.402-10.375,14.712-19.511,24.455-26.887l13.416,20.78c-6.309,4.925-11.808,10.845-16.256,17.499L582.419,644.979z"/>
		<path fill="none" stroke="#A2252A" stroke-width="2" stroke-miterlimit="10" d="M618.627,610.434
			c12.511-6.938,26.363-11.044,40.696-12.056v25.055c-9.517,0.867-18.738,3.542-27.213,7.89L618.627,610.434z"/>
		<path fill="none" stroke="#A2252A" stroke-width="2" stroke-miterlimit="10" d="M700.211,631.334
			c-8.37-4.293-17.475-6.959-26.862-7.864v-25.091c14.229,1.003,27.992,5.058,40.438,11.909L700.211,631.334z"/>
		<path fill="none" stroke="#A2252A" stroke-width="2" stroke-miterlimit="10" d="M728.05,656.054
			c-4.4-6.521-9.822-12.327-16.02-17.169l13.526-20.975c9.688,7.293,17.979,16.332,24.404,26.6L728.05,656.054z"/>
		<path fill="none" stroke="#A2252A" stroke-width="2" stroke-miterlimit="10" d="M740.34,689.688
			c-0.795-7.35-2.68-14.557-5.57-21.32l21.771-11.473c4.615,10.398,7.336,21.382,8.124,32.793H740.34z"/>
		<path fill="none" stroke="#A2252A" stroke-width="2" stroke-miterlimit="10" d="M735.382,725.606
			c2.804-6.974,4.547-14.378,5.154-21.895h24.119c-0.815,11.4-3.604,22.605-8.218,32.991L735.382,725.606z"/>
		<path fill="none" stroke="#A2252A" stroke-width="2" stroke-miterlimit="10" d="M712.634,756.113
			c6.38-5.088,11.896-11.193,16.306-18.048l20.899,11.016c-6.458,10.275-14.805,19.317-24.562,26.613L712.634,756.113z"/>
		<path fill="none" stroke="#A2252A" stroke-width="2" stroke-miterlimit="10" d="M673.349,772.008
			c9.654-0.928,18.991-3.713,27.545-8.219l12.583,19.488c-12.36,6.741-26.02,10.736-40.128,11.73V772.008z"/>
		<path fill="none" stroke="#A2252A" stroke-width="2" stroke-miterlimit="10" d="M659.324,795.013
			c-14.217-1.004-27.966-5.048-40.395-11.885l12.484-19.337c8.659,4.565,18.122,7.364,27.908,8.255L659.324,795.013L659.324,795.013
			z"/>
		<path fill="none" stroke="#A2252A" stroke-width="2" stroke-miterlimit="10" d="M607.155,775.513
			c-9.809-7.374-18.187-16.53-24.655-26.944l20.648-10.843c4.446,7.003,10.039,13.229,16.524,18.394L607.155,775.513z"/>
		<path fill="none" stroke="#A2252A" stroke-width="2" stroke-miterlimit="10" d="M575.977,736.149
			c-4.458-10.232-7.159-21.244-7.961-32.438h23.748c0.582,7.435,2.255,14.635,4.999,21.521L575.977,736.149z"/>
		<path fill="none" stroke="#A2252A" stroke-width="2" stroke-miterlimit="10" d="M568.006,689.688
			c0.776-11.223,3.424-22.032,7.907-32.283l21.471,11.314c-2.804,6.663-4.632,13.75-5.414,20.969H568.006z"/>
		<path fill="none" stroke="#A2252A" stroke-width="2" stroke-miterlimit="10" d="M615.929,663.713
			c3.444-4.862,7.462-9.306,11.956-13.234l15.623,24.215c-0.741,0.785-1.455,1.601-2.141,2.436L615.929,663.713z"/>
		<path fill="none" stroke="#A2252A" stroke-width="2" stroke-miterlimit="10" d="M640.07,644.063
			c6.766-3.202,13.968-5.35,21.394-6.369v28.092c-2.101,0.477-4.16,1.1-6.171,1.868L640.07,644.063z"/>
		<path fill="none" stroke="#A2252A" stroke-width="2" stroke-miterlimit="10" d="M679.146,667.548
			c-1.86-0.692-3.762-1.261-5.693-1.698v-27.821c7.211,0.991,14.213,3.053,20.791,6.118L679.146,667.548z"/>
		<path fill="none" stroke="#A2252A" stroke-width="2" stroke-miterlimit="10" d="M691.023,676.686
			c-0.603-0.705-1.225-1.396-1.868-2.064l15.261-23.652c4.328,3.74,8.208,7.965,11.551,12.58L691.023,676.686z"/>
		<path fill="none" stroke="#A2252A" stroke-width="2" stroke-miterlimit="10" d="M697.439,690.454
			c-0.151-0.702-0.316-1.398-0.497-2.091l27.313-14.389c1.938,5.318,3.312,10.852,4.091,16.479H697.439z"/>
		<path fill="none" stroke="#A2252A" stroke-width="2" stroke-miterlimit="10" d="M695.579,704.608
			c0.229-0.794,0.445-1.598,0.636-2.401h32.972c-0.828,6.089-2.315,12.021-4.45,17.775L695.579,704.608z"/>
		<path fill="none" stroke="#A2252A" stroke-width="2" stroke-miterlimit="10" d="M688.628,720.257
			c0.676-0.67,1.335-1.357,1.972-2.066l27.688,14.598c-3.694,5.045-7.967,9.646-12.724,13.701L688.628,720.257z"/>
		<path fill="none" stroke="#A2252A" stroke-width="2" stroke-miterlimit="10" d="M673.453,728.33
			c1.661-0.377,3.302-0.848,4.914-1.403l16.471,25.514c-6.782,3.104-13.981,5.188-21.385,6.212V728.33z"/>
		<path fill="none" stroke="#A2252A" stroke-width="2" stroke-miterlimit="10" d="M660.563,757.256
			c-7.217-0.99-14.224-3.051-20.813-6.111l15.707-24.313c1.672,0.593,3.376,1.09,5.104,1.481L660.563,757.256L660.563,757.256z"/>
		<path fill="none" stroke="#A2252A" stroke-width="2" stroke-miterlimit="10" d="M626.551,747.309
			c-4.992-4.301-9.458-9.188-13.288-14.547l28.475-15.004c0.738,0.854,1.508,1.683,2.301,2.482L626.551,747.309z"/>
		<path fill="none" stroke="#A2252A" stroke-width="2" stroke-miterlimit="10" d="M608.004,720.667
			c-1.864-5.24-3.195-10.673-3.959-16.187h31.604c0.109,0.476,0.234,0.954,0.36,1.429L608.004,720.667z"/>
		<path fill="none" stroke="#A2252A" stroke-width="2" stroke-miterlimit="10" d="M601.626,690.454
			c0.798-5.863,2.183-11.59,4.152-17.152l30.011,15.826c-0.104,0.442-0.207,0.885-0.303,1.326H601.626z"/>
	</g>
	
		<line fill="none" stroke="#A1A844" stroke-width="2" stroke-miterlimit="10" x1="322.836" y1="472.772" x2="537.614" y2="472.772"/>
	<g>
		<g>
			
				<line fill="none" stroke="#A2252A" stroke-width="2" stroke-miterlimit="10" x1="530.003" y1="528.939" x2="530.003" y2="1000.271"/>
			
				<line fill="none" stroke="#A2252A" stroke-width="2" stroke-miterlimit="10" x1="454.337" y1="582.414" x2="454.337" y2="948.606"/>
		</g>
		<g>
			
				<line fill="none" stroke="#A2252A" stroke-width="2" stroke-miterlimit="10" x1="802.804" y1="529.939" x2="802.804" y2="1000.271"/>
			
				<line fill="none" stroke="#A2252A" stroke-width="2" stroke-miterlimit="10" x1="878.47" y1="582.414" x2="878.47" y2="948.606"/>
		</g>
	</g>
	<g>
		
			<line fill="none" stroke="#A2252A" stroke-width="2" stroke-miterlimit="10" x1="454.289" y1="565.248" x2="650.003" y2="367.939"/>
		
			<line fill="none" stroke="#A2252A" stroke-width="2" stroke-miterlimit="10" x1="878.441" y1="565.248" x2="684.994" y2="367.939"/>
	</g>
	<g>
		<g>
			
				<line fill="none" stroke="#A1A844" stroke-width="2" stroke-miterlimit="10" x1="497.651" y1="537.939" x2="481.967" y2="538.18"/>
			
				<line fill="none" stroke="#A2252A" stroke-width="2" stroke-miterlimit="10" x1="530.003" y1="564.606" x2="497.651" y2="537.939"/>
		</g>
		<g>
			<g>
				
					<line fill="none" stroke="#A1A844" stroke-width="2" stroke-miterlimit="10" x1="834.863" y1="536.939" x2="849.545" y2="536.939"/>
				
					<line fill="none" stroke="#A2252A" stroke-width="2" stroke-miterlimit="10" x1="802.804" y1="564.606" x2="834.863" y2="536.939"/>
			</g>
		</g>
	</g>
	<g>
		
			<rect x="950.387" y="738.276" fill="none" stroke="#A2252A" stroke-width="2" stroke-miterlimit="10" width="23.95" height="66.33"/>
		<path fill="none" stroke="#A2252A" stroke-width="2" stroke-miterlimit="10" d="M981.977,530.396v50.869h21.61
			c-0.101-11.271-1.41-22.989-10.33-37.319C990.217,539.066,986.127,534.426,981.977,530.396z"/>
		<path fill="none" stroke="#A2252A" stroke-width="2" stroke-miterlimit="10" d="M921.146,581.267h21.602v-50.869
			c-4.141,4.028-8.24,8.67-11.28,13.55C922.557,558.276,921.248,569.995,921.146,581.267z"/>
		
			<rect x="921.137" y="588.276" fill="none" stroke="#A2252A" stroke-width="2" stroke-miterlimit="10" width="21.61" height="67.67"/>
		
			<rect x="921.137" y="664.097" fill="none" stroke="#A2252A" stroke-width="2" stroke-miterlimit="10" width="21.61" height="66.512"/>
		<path fill="none" stroke="#A2252A" stroke-width="2" stroke-miterlimit="10" d="M921.137,738.276c0,37.18,0,66.33,0,66.33h21.61
			v-66.33H921.137z"/>
		<path fill="none" stroke="#A2252A" stroke-width="2" stroke-miterlimit="10" d="M950.387,523.585v57.681h23.95v-57.681
			c-5.479-4.521-11.74-9.31-11.74-9.31h-0.46C962.137,514.276,955.877,519.066,950.387,523.585z"/>
		
			<rect x="950.387" y="588.276" fill="none" stroke="#A2252A" stroke-width="2" stroke-miterlimit="10" width="23.95" height="67.67"/>
		
			<rect x="950.387" y="664.097" fill="none" stroke="#A2252A" stroke-width="2" stroke-miterlimit="10" width="23.95" height="66.512"/>
		
			<rect x="981.977" y="588.188" fill="none" stroke="#A2252A" stroke-width="2" stroke-miterlimit="10" width="21.61" height="67.671"/>
		
			<rect x="981.977" y="664.007" fill="none" stroke="#A2252A" stroke-width="2" stroke-miterlimit="10" width="21.61" height="66.51"/>
		<path fill="none" stroke="#A2252A" stroke-width="2" stroke-miterlimit="10" d="M981.977,738.188c0,37.181,0,66.329,0,66.329
			h21.61v-66.329H981.977z"/>
	</g>
	<g>
		<g>
			
				<line fill="none" stroke="#A2252A" stroke-width="2" stroke-miterlimit="10" x1="285.336" y1="595.846" x2="285.336" y2="888.271"/>
			
				<line fill="none" stroke="#A2252A" stroke-width="2" stroke-miterlimit="10" x1="311.336" y1="595.846" x2="311.336" y2="888.271"/>
			
				<line fill="none" stroke="#A2252A" stroke-width="2" stroke-miterlimit="10" x1="428.336" y1="595.846" x2="428.336" y2="888.271"/>
		</g>
		
			<line fill="none" stroke="#A1A844" stroke-width="2" stroke-miterlimit="10" x1="285.336" y1="595.846" x2="311.336" y2="595.846"/>
		<g>
			
				<line fill="none" stroke="#A2252A" stroke-width="2" stroke-miterlimit="10" x1="1047.471" y1="595.846" x2="1047.471" y2="888.271"/>
			
				<line fill="none" stroke="#A2252A" stroke-width="2" stroke-miterlimit="10" x1="1021.471" y1="595.846" x2="1021.471" y2="888.271"/>
			
				<line fill="none" stroke="#A2252A" stroke-width="2" stroke-miterlimit="10" x1="904.471" y1="595.846" x2="904.471" y2="888.271"/>
		</g>
	</g>
	<path fill="none" stroke="#A1A844" stroke-width="2" stroke-miterlimit="10" d="M830.021,536.939"/>
	
		<line fill="none" stroke="#A1A844" stroke-width="2" stroke-miterlimit="10" x1="1047.471" y1="595.846" x2="1021.471" y2="595.846"/>
	
		<line fill="none" stroke="#A1A844" stroke-width="2" stroke-miterlimit="10" x1="1047.471" y1="888.271" x2="1021.471" y2="888.271"/>
	<line fill="none" stroke="#A1A844" stroke-width="2" stroke-miterlimit="10" x1="904.471" y1="888.271" x2="878.47" y2="888.271"/>
	<line fill="none" stroke="#A1A844" stroke-width="2" stroke-miterlimit="10" x1="904.471" y1="595.846" x2="878.47" y2="595.846"/>
	<g>
		<g>
			
				<line fill="none" stroke="#A2252A" stroke-width="2" stroke-miterlimit="10" x1="255.836" y1="854.771" x2="255.836" y2="489.939"/>
			
				<line fill="none" stroke="#A2252A" stroke-width="2" stroke-miterlimit="10" x1="255.836" y1="472.772" x2="291.336" y2="443.772"/>
			
				<line fill="none" stroke="#A2252A" stroke-width="2" stroke-miterlimit="10" x1="290.836" y1="443.772" x2="322.836" y2="472.772"/>
		</g>
		<g>
			
				<line fill="none" stroke="#A2252A" stroke-width="2" stroke-miterlimit="10" x1="1076.971" y1="854.771" x2="1076.971" y2="490.105"/>
			
				<line fill="none" stroke="#A2252A" stroke-width="2" stroke-miterlimit="10" x1="1076.971" y1="472.772" x2="1040.336" y2="443.772"/>
			
				<line fill="none" stroke="#A2252A" stroke-width="2" stroke-miterlimit="10" x1="1040.836" y1="443.772" x2="1008.971" y2="472.772"/>
		</g>
	</g>
	
		<line fill="none" stroke="#A1A844" stroke-width="2" stroke-miterlimit="10" x1="1008.971" y1="472.772" x2="794.351" y2="472.772"/>
	<g>
		<g>
			
				<line fill="none" stroke="#A2252A" stroke-width="2" stroke-miterlimit="10" x1="472.822" y1="352.105" x2="636.143" y2="266.272"/>
			<g>
				
					<line fill="none" stroke="#A2252A" stroke-width="2" stroke-miterlimit="10" x1="469.836" y1="472.772" x2="469.254" y2="385.772"/>
				
					<line fill="none" stroke="#A2252A" stroke-width="2" stroke-miterlimit="10" x1="466.67" y1="385.772" x2="466.67" y2="378.105"/>
				
					<line fill="none" stroke="#A2252A" stroke-width="2" stroke-miterlimit="10" x1="466.67" y1="378.105" x2="471.837" y2="378.105"/>
				
					<line fill="none" stroke="#A2252A" stroke-width="2" stroke-miterlimit="10" x1="471.837" y1="378.105" x2="471.837" y2="369.272"/>
				
					<line fill="none" stroke="#A2252A" stroke-width="2" stroke-miterlimit="10" x1="471.837" y1="369.272" x2="464.837" y2="369.272"/>
				
					<line fill="none" stroke="#A2252A" stroke-width="2" stroke-miterlimit="10" x1="464.837" y1="369.272" x2="464.837" y2="363.605"/>
				
					<line fill="none" stroke="#A2252A" stroke-width="2" stroke-miterlimit="10" x1="464.837" y1="363.605" x2="458.837" y2="363.605"/>
				
					<line fill="none" stroke="#A2252A" stroke-width="2" stroke-miterlimit="10" x1="458.837" y1="363.605" x2="458.837" y2="290.88"/>
				
					<line fill="none" stroke="#A2252A" stroke-width="2" stroke-miterlimit="10" x1="636.143" y1="266.272" x2="633.086" y2="262.272"/>
				
					<line fill="none" stroke="#A2252A" stroke-width="2" stroke-miterlimit="10" x1="633.086" y1="262.272" x2="645.086" y2="255.522"/>
				
					<line fill="none" stroke="#A2252A" stroke-width="2" stroke-miterlimit="10" x1="645.086" y1="255.522" x2="654.336" y2="245.022"/>
				
					<line fill="none" stroke="#A2252A" stroke-width="2" stroke-miterlimit="10" x1="654.336" y1="245.022" x2="645.086" y2="245.022"/>
				
					<line fill="none" stroke="#A2252A" stroke-width="2" stroke-miterlimit="10" x1="645.086" y1="245.022" x2="645.086" y2="235.772"/>
				
					<line fill="none" stroke="#A2252A" stroke-width="2" stroke-miterlimit="10" x1="645.086" y1="235.772" x2="657.842" y2="235.772"/>
				
					<line fill="none" stroke="#A2252A" stroke-width="2" stroke-miterlimit="10" x1="657.842" y1="235.772" x2="657.842" y2="204.882"/>
				<path fill="none" stroke="#A2252A" stroke-width="2" stroke-miterlimit="10" d="M661.086,173.462v6.69h-6.39
					c0.12-0.29,0.25-0.58,0.39-0.86c0.96-1.95,2.42-3.61,4.21-4.82C659.867,174.082,660.457,173.752,661.086,173.462z"/>
				<path fill="none" stroke="#A2252A" stroke-width="2" stroke-miterlimit="10" d="M661.086,190.522v5.77
					c-0.63-0.28-1.22-0.62-1.79-1c-1.479-1.01-2.729-2.31-3.67-3.83c-0.19-0.31-0.36-0.62-0.51-0.94H661.086z"/>
				<path fill="none" stroke="#A2252A" stroke-width="2" stroke-miterlimit="10" d="M657.846,204.882
					c-6.107-2.6-10.77-7.92-12.479-14.44h-12.28v-10.17h12.09c1.71-7.81,7.643-14.04,15.28-16.19v-43.368"/>
				<path fill="none" stroke="#A2252A" stroke-width="2" stroke-miterlimit="10" d="M657.846,204.882"/>
			</g>
		</g>
		<g>
			
				<line fill="none" stroke="#A2252A" stroke-width="2" stroke-miterlimit="10" x1="859.986" y1="352.105" x2="696.665" y2="266.272"/>
			<g>
				
					<line fill="none" stroke="#A2252A" stroke-width="2" stroke-miterlimit="10" x1="862.971" y1="472.772" x2="862.971" y2="385.772"/>
				
					<line fill="none" stroke="#A2252A" stroke-width="2" stroke-miterlimit="10" x1="866.137" y1="385.772" x2="866.137" y2="378.105"/>
				
					<line fill="none" stroke="#A2252A" stroke-width="2" stroke-miterlimit="10" x1="866.137" y1="378.105" x2="860.97" y2="378.105"/>
				
					<line fill="none" stroke="#A2252A" stroke-width="2" stroke-miterlimit="10" x1="860.97" y1="378.105" x2="860.97" y2="369.272"/>
				
					<line fill="none" stroke="#A2252A" stroke-width="2" stroke-miterlimit="10" x1="860.97" y1="369.272" x2="867.97" y2="369.272"/>
				
					<line fill="none" stroke="#A2252A" stroke-width="2" stroke-miterlimit="10" x1="867.97" y1="369.272" x2="867.97" y2="363.605"/>
				
					<line fill="none" stroke="#A2252A" stroke-width="2" stroke-miterlimit="10" x1="867.97" y1="363.605" x2="873.97" y2="363.605"/>
				
					<line fill="none" stroke="#A2252A" stroke-width="2" stroke-miterlimit="10" x1="696.665" y1="266.272" x2="699.721" y2="262.272"/>
				
					<line fill="none" stroke="#A2252A" stroke-width="2" stroke-miterlimit="10" x1="699.721" y1="262.272" x2="687.721" y2="255.522"/>
				
					<line fill="none" stroke="#A2252A" stroke-width="2" stroke-miterlimit="10" x1="687.721" y1="255.522" x2="678.471" y2="245.022"/>
				
					<line fill="none" stroke="#A2252A" stroke-width="2" stroke-miterlimit="10" x1="678.471" y1="245.022" x2="687.721" y2="245.022"/>
				
					<line fill="none" stroke="#A2252A" stroke-width="2" stroke-miterlimit="10" x1="687.721" y1="245.022" x2="687.721" y2="235.772"/>
				
					<line fill="none" stroke="#A2252A" stroke-width="2" stroke-miterlimit="10" x1="687.721" y1="235.772" x2="674.965" y2="235.772"/>
				
					<line fill="none" stroke="#A2252A" stroke-width="2" stroke-miterlimit="10" x1="674.965" y1="235.772" x2="674.965" y2="204.882"/>
				<path fill="none" stroke="#A2252A" stroke-width="2" stroke-miterlimit="10" d="M671.721,173.462v6.69h6.392
					c-0.12-0.29-0.25-0.58-0.392-0.86c-0.96-1.95-2.42-3.61-4.21-4.82C672.941,174.082,672.351,173.752,671.721,173.462z"/>
				<path fill="none" stroke="#A2252A" stroke-width="2" stroke-miterlimit="10" d="M671.721,190.522v5.77
					c0.63-0.28,1.222-0.62,1.79-1c1.479-1.01,2.729-2.31,3.67-3.83c0.19-0.31,0.36-0.62,0.512-0.94H671.721z"/>
				<path fill="none" stroke="#A2252A" stroke-width="2" stroke-miterlimit="10" d="M674.961,204.882
					c6.109-2.6,10.771-7.92,12.479-14.44h12.278v-10.17h-12.09c-1.71-7.81-7.641-14.04-15.28-16.19v-43.368"/>
				<path fill="none" stroke="#A2252A" stroke-width="2" stroke-miterlimit="10" d="M674.961,204.882"/>
			</g>
		</g>
	</g>
	
		<line fill="none" stroke="#A2252A" stroke-width="2" stroke-miterlimit="10" x1="290.836" y1="443.772" x2="428.879" y2="352.605"/>
	
		<line fill="none" stroke="#A2252A" stroke-width="2" stroke-miterlimit="10" x1="903.112" y1="352.605" x2="1040.836" y2="443.772"/>
	<path fill="none" stroke="#A2252A" stroke-width="2" stroke-miterlimit="10" d="M255.836,472.772"/>
	<path fill="none" stroke="#A2252A" stroke-width="2" stroke-miterlimit="10" d="M254.852,489.939"/>
	
		<line fill="none" stroke="#A2252A" stroke-width="2" stroke-miterlimit="10" x1="254.852" y1="489.939" x2="247.852" y2="489.939"/>
	
		<line fill="none" stroke="#A2252A" stroke-width="2" stroke-miterlimit="10" x1="247.852" y1="489.939" x2="247.852" y2="484.272"/>
	
		<line fill="none" stroke="#A2252A" stroke-width="2" stroke-miterlimit="10" x1="247.852" y1="484.272" x2="241.852" y2="484.272"/>
	
		<line fill="none" stroke="#A2252A" stroke-width="2" stroke-miterlimit="10" x1="241.852" y1="484.272" x2="241.852" y2="472.772"/>
	
		<line fill="none" stroke="#A2252A" stroke-width="2" stroke-miterlimit="10" x1="241.852" y1="472.772" x2="255.836" y2="472.772"/>
	
		<line fill="none" stroke="#A2252A" stroke-width="2" stroke-miterlimit="10" x1="1077.956" y1="490.105" x2="1084.956" y2="490.105"/>
	
		<line fill="none" stroke="#A2252A" stroke-width="2" stroke-miterlimit="10" x1="1084.956" y1="490.105" x2="1084.956" y2="484.438"/>
	
		<line fill="none" stroke="#A2252A" stroke-width="2" stroke-miterlimit="10" x1="1084.956" y1="484.438" x2="1090.956" y2="484.438"/>
	
		<line fill="none" stroke="#A2252A" stroke-width="2" stroke-miterlimit="10" x1="1090.956" y1="484.438" x2="1090.956" y2="472.938"/>
	
		<line fill="none" stroke="#A2252A" stroke-width="2" stroke-miterlimit="10" x1="1090.956" y1="472.938" x2="1076.971" y2="472.938"/>
	
		<line fill="none" stroke="#A1A844" stroke-width="2" stroke-miterlimit="10" x1="284.836" y1="635.372" x2="310.836" y2="635.372"/>
	
		<line fill="none" stroke="#A1A844" stroke-width="2" stroke-miterlimit="10" x1="428.336" y1="635.372" x2="454.336" y2="635.372"/>
	<line fill="none" stroke="#A1A844" stroke-width="2" stroke-miterlimit="10" x1="877.112" y1="635.37" x2="903.112" y2="635.37"/>
	
		<line fill="none" stroke="#A1A844" stroke-width="2" stroke-miterlimit="10" x1="1021.612" y1="635.37" x2="1047.612" y2="635.37"/>
	
		<line fill="none" stroke="#A2252A" stroke-width="2" stroke-miterlimit="10" x1="800.381" y1="529.041" x2="834.863" y2="536.939"/>
	
		<line fill="none" stroke="#A1A844" stroke-width="2" stroke-miterlimit="10" x1="530.003" y1="529.833" x2="802.804" y2="529.939"/>
	
		<line fill="none" stroke="#A2252A" stroke-width="2" stroke-miterlimit="10" x1="497.651" y1="537.939" x2="530.003" y2="529.833"/>
	
		<line fill="none" stroke="#A1A844" stroke-width="2" stroke-miterlimit="10" x1="530.003" y1="560.606" x2="802.804" y2="560.606"/>
	
		<line fill="none" stroke="#A1A844" stroke-width="2" stroke-miterlimit="10" x1="530.003" y1="1000.271" x2="802.804" y2="1000.271"/>
	
		<line fill="none" stroke="#A1A844" stroke-width="2" stroke-miterlimit="10" x1="453.146" y1="948.606" x2="530.003" y2="948.606"/>
	
		<line fill="none" stroke="#A1A844" stroke-width="2" stroke-miterlimit="10" x1="801.583" y1="948.606" x2="878.441" y2="948.606"/>
	
		<line fill="none" stroke="#A1A844" stroke-width="2" stroke-miterlimit="10" x1="650.003" y1="367.939" x2="684.994" y2="367.939"/>
	
		<line fill="none" stroke="#A1A844" stroke-width="2" stroke-miterlimit="10" x1="470.699" y1="439.772" x2="573.936" y2="439.772"/>
	
		<line fill="none" stroke="#A1A844" stroke-width="2" stroke-miterlimit="10" x1="761.169" y1="439.772" x2="862.971" y2="439.772"/>
	<path fill="none" stroke="#A2252A" stroke-width="2" stroke-miterlimit="10" d="M680.619,696.123
		c0,7.919-6.418,14.337-14.337,14.337c-7.918,0-14.337-6.418-14.337-14.337c0-7.915,6.419-14.337,14.337-14.337
		C674.201,681.786,680.619,688.208,680.619,696.123z"/>
	
		<line fill="none" stroke="#A1A844" stroke-width="2" stroke-miterlimit="10" x1="255.836" y1="854.771" x2="283.836" y2="854.771"/>
	
		<line fill="none" stroke="#A1A844" stroke-width="2" stroke-miterlimit="10" x1="1048.655" y1="854.771" x2="1076.971" y2="854.771"/>
	
		<line fill="none" stroke="#A1A844" stroke-width="2" stroke-miterlimit="10" x1="311.836" y1="854.771" x2="428.336" y2="854.771"/>
	
		<line fill="none" stroke="#A1A844" stroke-width="2" stroke-miterlimit="10" x1="904.112" y1="854.771" x2="1020.612" y2="854.771"/>
	<line fill="none" stroke="#A2252A" stroke-width="2" stroke-miterlimit="10" x1="453.727" y1="582.414" x2="449.73" y2="582.414"/>
	<line fill="none" stroke="#A2252A" stroke-width="2" stroke-miterlimit="10" x1="449.73" y1="582.414" x2="449.73" y2="576.748"/>
	<line fill="none" stroke="#A2252A" stroke-width="2" stroke-miterlimit="10" x1="449.73" y1="576.748" x2="446.304" y2="576.748"/>
	
		<line fill="none" stroke="#A2252A" stroke-width="2" stroke-miterlimit="10" x1="446.304" y1="576.748" x2="446.304" y2="565.248"/>
	
		<line fill="none" stroke="#A2252A" stroke-width="2" stroke-miterlimit="10" x1="446.304" y1="565.248" x2="454.289" y2="565.248"/>
	<line fill="none" stroke="#A2252A" stroke-width="2" stroke-miterlimit="10" x1="879.002" y1="582.414" x2="883" y2="582.414"/>
	<line fill="none" stroke="#A2252A" stroke-width="2" stroke-miterlimit="10" x1="883" y1="582.414" x2="883" y2="576.748"/>
	<line fill="none" stroke="#A2252A" stroke-width="2" stroke-miterlimit="10" x1="883" y1="576.748" x2="886.425" y2="576.748"/>
	
		<line fill="none" stroke="#A2252A" stroke-width="2" stroke-miterlimit="10" x1="886.425" y1="576.748" x2="886.425" y2="565.248"/>
	
		<line fill="none" stroke="#A2252A" stroke-width="2" stroke-miterlimit="10" x1="886.425" y1="565.248" x2="878.441" y2="565.248"/>
	
		<line fill="none" stroke="#A1A844" stroke-width="2" stroke-miterlimit="10" x1="636.143" y1="266.272" x2="696.665" y2="266.272"/>
	<line fill="none" stroke="#A1A844" stroke-width="2" stroke-miterlimit="10" x1="458.837" y1="352.105" x2="873.97" y2="352.105"/>
	<line fill="none" stroke="#A2252A" stroke-width="2" stroke-miterlimit="10" x1="466.67" y1="385.772" x2="469.254" y2="385.772"/>
	
		<line fill="none" stroke="#A2252A" stroke-width="2" stroke-miterlimit="10" x1="866.137" y1="385.772" x2="863.553" y2="385.772"/>
	
		<line fill="none" stroke="#A1A844" stroke-width="2" stroke-miterlimit="10" x1="903.112" y1="352.605" x2="873.047" y2="352.605"/>
	
		<line fill="none" stroke="#A1A844" stroke-width="2" stroke-miterlimit="10" x1="234.967" y1="778.013" x2="255.836" y2="778.013"/>
	
		<line fill="none" stroke="#A1A844" stroke-width="2" stroke-miterlimit="10" x1="1076.971" y1="778.01" x2="1098.967" y2="778.01"/>
	
		<line fill="none" stroke="#A1A844" stroke-width="2" stroke-miterlimit="10" x1="660.771" y1="148.714" x2="672.036" y2="148.714"/>
	
		<line fill="none" stroke="#A1A844" stroke-width="2" stroke-miterlimit="10" x1="660.104" y1="121.047" x2="671.369" y2="121.047"/>
	<line fill="none" stroke="#A2252A" stroke-width="2" stroke-miterlimit="10" x1="471.935" y1="352.105" x2="471.935" y2="290.88"/>
	<line fill="none" stroke="#A1A844" stroke-width="2" stroke-miterlimit="10" x1="458.837" y1="290.88" x2="472.822" y2="290.88"/>
	<line fill="none" stroke="#A2252A" stroke-width="2" stroke-miterlimit="10" x1="874.076" y1="363.605" x2="874.076" y2="290.88"/>
	<line fill="none" stroke="#A2252A" stroke-width="2" stroke-miterlimit="10" x1="860.979" y1="352.105" x2="860.979" y2="290.88"/>
	<line fill="none" stroke="#A1A844" stroke-width="2" stroke-miterlimit="10" x1="860.979" y1="290.88" x2="874.962" y2="290.88"/>
	
		<line fill="none" stroke="#A1A844" stroke-width="2" stroke-miterlimit="10" x1="458.944" y1="352.605" x2="428.879" y2="352.605"/>
</g>
<g id="Layer_2">
	<g>
		<path fill="none" stroke="#A2252A" stroke-width="2" stroke-miterlimit="10" d="M790.303,1119.337
			c0.065-1.213,4.039-9.686,3.136-9.732c-14.393-0.711-7.055-16.45-7.405-16.427c-3.324,0.194,11.615-7.735,8.373-6.684
			c-3.455,1.12,11.937-0.577,12.33-6.172c0.168-2.375-0.008-5.696-0.929-7.207c-2.688-4.417-0.122-5.761,1.427-7.709
			c0.342-0.432,1.213,0.308,1.653-0.058c2.557-2.11,20.831,6.43,23.284,4.035c0.245-0.237-0.174-1.927-0.075-2.884
			c0.193-1.887,0.491-5.329,0.825-5.351c2.32-0.169,10.341,16.411,11.969,12.442c0.568-1.384,2.323-1.445,3.086-2.764
			c0.668-1.157,0.811-3.204,0.986-4.906c0.182-1.768,0.053-3.613,0.197-5.396c0.18-2.221,0.015-5.256,0.849-6.468
			c2.982-4.325,4.722-3.313,6.506,2.455c0.573,1.845,1.879,3.115,2.85,4.648c0.21-1.363,0.346-2.765,0.648-4.072
			c0.358-1.546,1.063-2.946,1.264-4.523c0.363-2.856,0.357-5.833,0.71-8.691c0.3-2.42,0.533-5.19,1.438-6.999
			c1.13-2.262,3.416-3.217,4.325-5.582c2.091-5.453,4.281-9.633,8.822-9.24c1.76,0.151,1.962-1.429,0.706-3.938
			c-1.684-3.367-3.072-7.266,0.782-10.097c0.378-0.276-0.082-3.438-0.154-5.27c-0.354,0.454-0.684,1.194-1.076,1.287
			c-0.579,0.135-1.525,0.129-1.737-0.396c-0.393-0.988-0.768-2.944-0.447-3.536c1.484-2.732,2.984-5.896,4.936-7.348
			c1.049-0.778,3.02,1.614,4.587,2.526c0.397,0.232,0.848,0.448,1.258,0.389c2.995-0.439,6.596-11.418,5.282-15.76
			c-0.336-1.116-0.18-2.611-0.249-3.931c0.638,0.133,1.271,0.343,1.91,0.383c0.668,0.046,1.486,0.315,1.977-0.176
			c2.647-2.651,4.652-0.974,6.909,1.571c1.481,1.672,4.071,3.756,5.207,2.799c4.396-3.701,8.147-3.71,11.787,1.842
			c0.737,1.122,1.5,2.226,2.318,3.195c0.338,0.401,1.099,0.814,1.249,0.565c1.477-2.403,2.896-4.908,4.27-7.472
			c0.465-0.873,0.739-2.001,1.101-3.015c-1.018-0.182-2.045-0.562-3.05-0.441c-0.422,0.047-0.786,1.163-1.194,1.77
			c-0.9,1.342-1.813,2.665-2.721,3.998c-0.63-2.259-1.28-4.508-1.883-6.785c-0.329-1.25-0.518-2.599-0.883-3.815
			c-0.433-1.441-1.568-3.099-1.354-4.099c0.325-1.523,1.432-2.919,2.42-3.723c1.325-1.073,3.538-0.844,4.149-2.392
			c1.286-3.237,2.086-2.549,3.928-1.262c2.383,1.661,5.372,4.947,7.673,0.402c1.534-3.024,2.033-7.325,3.186-10.896
			c0.516-1.605,1.353-3.178,2.294-4.161c4.428-4.634,8.222-1.181,12.148,2.34c1.701,1.524,5.089,3.286,5.621,2.248
			c2.368-4.624,3.875-1.625,4.88,1.007c2.081,5.435,3.868,1.474,5.035-0.49c3.011-5.069,6.95-6.554,10.577-2.831
			c0.52,0.534,0.603,2.224,0.81,3.413c0.287,1.686,0.331,3.538,0.789,5.085c0.656,2.226,1.574,4.258,2.417,6.335
			c0.704,1.735,1.458,3.421,2.189,5.13c0.918-2.006,2.737-4.221,2.576-5.978c-0.438-4.722,0.17-6.948,3.316-7.389
			c0.526-0.075,0.928-2.836,1.334-4.392c0.078-0.297-0.089-0.762-0.146-1.147c-0.45,0.929-0.851-3.402-1.363-2.577
			c-0.438,0.699-1.006,1.189-1.516,1.775c-0.017-1.033-0.302-2.341-0.008-3.057c2.027-4.938,3.649-5.285,7.911-6.579
			c0.334-0.103,0.649-1.338,0.766-2.123c0.31-2.106,0.082-4.881,0.864-6.222c0.832-1.421,2.555-1.702,3.933-2.093
			c0.978-0.271,2.095,0.521,3.03,0.128c3.349-1.419,8.401,3.928,8.716,9.36c0.031,0.576,0.412,1.44,0.739,1.588
			c2.017,0.903,4.259,1.059,6.053,2.578c2.529,2.134,4.203,1.311,4.405-3.338c0.084-2.025-0.349-4.099-0.477-6.16
			c-0.346-5.524,1.363-7.727,4.317-4.898c3.219,3.087,3.496,0.319,3.651-3.584c0.351,0,0.701,0,1.054,0
			c0.625,0.731,1.198,1.897,1.889,2.119c4.205,1.346,5.908,9.965,10.815,9.231c1.621-0.241,3.891,0.95,4.772-0.361
			c2.064-3.068,3.471-7.257,5.144-10.989c0.703,0,1.402,0,2.104,0c0.622,1.112,1.123,2.873,1.882,3.226
			c2.863,1.315,1.367,3.974,0.966,6.313c-0.321,1.842-1.322,4.398-0.894,5.332c0.737,1.609,2.296,2.747,3.614,3.102
			c2.651,0.704,5.404,0.445,8.042,1.218c1.03,0.305,2.2,2.018,2.726,3.583c1.467,4.35,1.79,8.511-1.472,11.749
			c-0.518,0.516-0.095,3.457-0.047,5.274c0.002,0.074,0.616,0.105,0.945,0.157c-0.694-5.802,1.835-1.901,2.903-2.577
			c1.333-0.838,2.543-2.271,3.694-3.675c0.779-0.947,1.561-3.449,2.011-3.26c2.171,0.915,4.213,2.582,6.34,3.81
			c0.688,0.398,1.556,0.621,2.232,0.313c0.983-0.45,1.895-2.174,2.791-2.093c3.239,0.293,5.469,2.555,5.459,8.496
			c-0.001,1.256,0.803,2.513,1.237,3.77c2.919-4.942,6.617-1.054,9.915-1.938c1.576-0.423,2.42,2.201,1.623,5.751
			c-0.896,3.99-1.195,8.084-4.276,9.438c-0.259,0.114-0.282,1.282-0.521,1.845c-1.016,2.396-2.081,4.73-3.1,7.123
			c-0.157,0.365-0.283,1.253-0.214,1.312c2.09,1.856,3.974,2.524,5.462-1.661c0.333-0.937,1.63-1.044,2.501-1.45
			c1.132-0.531,2.263-1.124,3.422-1.439c1.354-0.363,2.733-0.46,4.101-0.676c-0.067,1.888,0.142,3.945-0.262,5.625
			c-1.285,5.348-0.425,7.925,2.652,7.989c2.531,0.055,5.581-0.458,7.434,1.537c1.731,1.863,2.171,6.711,3.207,10.223
			c0.364,1.234,0.813,2.403,1.224,3.605c0.702-1.378,1.355-2.818,2.114-4.111c0.552-0.944,1.167-1.894,1.872-2.481
			c0.998-0.832,2.096-1.391,3.172-1.951c1.494-0.785,4.177-2.467,4.329-2.017c0.985,2.874,1.523,6.205,1.868,9.474
			c0.03,0.3-2.385,1.041-3.556,1.935c-0.944,0.717-2.204,1.705-2.496,3.033c-1.205,5.438-2.319,10.564-6.384,12.503
			c-0.82,0.395-1.121,3.539-1.659,5.413c0.557,0.223,1.468,0.193,1.61,0.704c0.756,2.742,5.946,2,2.563,8.195
			c-0.42,0.769,0.479,3.358,0.771,5.104c0.743-0.525,1.505-0.993,2.224-1.597c1.046-0.88,2.115-1.73,3.069-2.826
			c1.079-1.241,2.739-2.54,2.92-4.161c0.546-4.768,2.206-3.594,3.8-2.301c1.93,1.564,3.78,3.433,5.532,5.459
			c1.215,1.411,2.612,3.255-0.032,4.958c-0.386,0.251-0.82,2.05-0.631,2.549c2.568,6.681,6.805,11.282,10.771,14.459
			c5.096,4.077,5.083,11.649,6.093,17.434c0.839,4.808,1.397,9.442,3.358,13.371c1.801,3.602,2.335,6.309-0.594,9.534
			c-0.981,1.078-0.842,5.091-0.845,7.763c-0.001,0.62,1.473,4.18,2.332,4.472"/>
		
			<line fill="none" stroke="#A1A844" stroke-width="2" stroke-miterlimit="10" x1="790.303" y1="1119.337" x2="1179.558" y2="1119.337"/>
	</g>
	<g>
		<path fill="none" stroke="#A2252A" stroke-width="2" stroke-miterlimit="10" d="M238.427,1259.078
			c-0.594-3.351,4.743-13.24,1.989-17.813c0.253-0.185-2.965,2.624-11.739-6.865c-1.88-2.034-7.583-13.26-5.116-13.991
			c0.567-0.169-0.109-5.802-0.082-6.219c0.3-4.669-14.856,6.431-11.95,3.483c0.949-0.962,1.455-4.497,1.03-4.72
			c-1.608-0.845-3.672-0.889-5.603-1.004c-0.191-0.01-0.48,1.769-1.039,2.304c-0.759,0.73-2.069,1.659-2.696,1.429
			c-0.984-0.361-1.416-2.013-2.396-2.435c-6.108-2.637-9.286-6.476-6.127-15.108c1.186-3.242,0.914-5.897,4.921-4.941
			c0.406,0.099,1.918-1.577,1.824-1.889c-0.51-1.681-1.304-3.24-2.138-4.73c-0.24-0.435-0.917-0.595-1.449-0.688
			c-0.106-0.017-0.598,0.854-0.653,1.313c-0.367,2.925-2.98,5.069-5.479,3.91c-3.08-1.432-6.073-3.219-8.632-5.456
			c-0.998-0.876-0.717-3.41-1.016-5.192c1.989-0.248,4.625-5.063,5.916,0.154c0.141,0.566,1.589,0.564,2.428,0.833
			c0.159-0.525,0.594-1.247,0.439-1.534c-2.713-5.081,0.889-5.186,4.029-5.775c3.258-0.616,5.328-3.914,4.982-7.512
			c-0.138-1.424-0.068-2.993,0.302-4.434c0.559-2.193,1.06-4.017-0.878-5.502c-0.627-0.48-0.594-3.358-0.183-3.622
			c1.459-0.947,3.508-2.023,4.794-1.615c2.653,0.842,4.617,2.789,4.346,6.565c-0.065,0.93,0.984,1.778,1.52,2.662
			c0.307-1.017,0.712-2.028,0.896-3.057c0.342-1.909,0.603-3.834,0.779-5.743c0.029-0.313-0.846-0.763-0.795-0.861
			c6.236-11.571,0.909-19.317,0.909-19.317c-4.433-0.255-2.966-3.577-2.432-6.688c0.389-2.256,0.375-4.632,0.013-6.771
			c-0.139-0.813-2.226-1.864-2.616-1.539c-4.524,3.797-3.181-1.037-2.564-2.264c1.082-2.147,2.967-4.02,4.76-5.656
			c0.935-0.854,2.986-1.71,3.49-1.247c0.867,0.788,0.896,2.614,1.314,3.988c0.3,0.978,0.662,1.932,0.998,2.896
			c0.831-0.505,1.996-0.809,2.436-1.553c1.932-3.291,3.238-3.451,4.59-0.194c0.346,0.832,2.059,1.763,2.484,1.442
			c1.601-1.191,2.977-2.837,4.331-4.417c0.379-0.44,0.402-1.252,0.586-1.885c-0.591,0.214-1.193,0.396-1.774,0.652
			c-0.93,0.414-1.847,0.883-2.77,1.327c0.063-1.089-0.263-2.654,0.257-3.177c1.826-1.835,1.122-2.646-0.215-3.644
			c-0.305-0.225-0.377-1.208-0.165-1.689c0.741-1.684,6.718-2.477,7.729-1.099c0.314,0.429,0.665,0.821,0.996,1.23
			c0.173-0.581,0.362-1.163,0.518-1.745c0.501-1.858,1.052-3.269,3.04-1.855c1.67,1.188,3.548,2.062,5.334,3.076
			c-0.38-2.327-0.724-4.667-1.148-6.977c-0.307-1.662,0.364-4.439-2.806-3.117c-0.195,0.082-0.693-0.834-0.953-1.358
			c-2.092-4.251,1.062-9.603,6.457-10.851c2.414-0.553,4.156-0.303,5.011,2.788c0.459,1.661,0.026,6.403,4.416,3.717
			c0.435-0.268,1.329,0.389,1.933,0.75c1.074,0.646,2.088,1.394,3.127,2.093c0.019-1.522-0.115-3.057,0.098-4.577
			c0.212-1.513,0.593-2.787-1.535-1.871c-0.108,0.052-0.958-1.395-0.774-1.987c0.563-1.813,1.791-5.114,2.174-5.072
			c3.02,0.31,6.036,0.991,8.749,2.195c0.778,0.348,0.492,2.819,0.875,4.234c0.129,0.478,0.819,0.698,1.251,1.031
			c0.702-1.604-3.774-17.42-3.072-19.026c1.486,0.631,2.966,1.27,4.462,1.88c0.077,0.033,0.271-0.247,0.389-0.242
			c2.017,0.084,4.048,0.126,6.045,0.322c1.37,0.129,2.696,0.489,4.042,0.748c0.135-0.882,0.632-2.022,0.339-2.603
			c-0.703-1.379-1.71-3.589-2.717-3.507c-2.542,0.207-2.68-1.093-2.45-3.126c0.39-3.499-0.027-6.876,2.367-10.404
			c2.864-4.218-0.76-5.999-2.723-8.154c-2.499-2.746-2.524,1.539-3.827,2.102c-0.659,0.283-1.991,0.061-2.205-0.442
			c-1.104-2.564-1.154-5.195,1.342-7.688c1.282-1.28,2.661-2.615,3.528-4.188c0.83-1.499,1.053-3.332,1.543-5.02
			c-1.249,1.108-2.476,2.248-3.75,3.317c-1.224,1.026-2.5,1.98-3.753,2.964c-0.671-2.02-2.415-5.244-1.838-5.862
			c3.397-3.653,0.9-6.356,0.708-9.446c-0.068-1.054,0.601-3.017,1.271-3.327c1.227-0.563,2.96-0.678,3.993-0.099
			c0.924,0.517,1.188,2.22,1.743,3.4c0.152,0.322,0.426,0.933,0.432,0.926c1.888-1.19,3.741-2.462,5.629-3.653
			c2.422-1.523,7.067,0.818,7.265,3.616c0.054,0.764,0.147,1.521,0.224,2.276c0.484-0.564,0.91-1.237,1.47-1.658
			c0.405-0.301,1.406-0.474,1.442-0.357c1.239,4.082,4.25,5.39,8.001,5.484c2.003,0.056,4.152-0.297,3.26,3.228
			c-0.082,0.323,0.946,1.085,1.578,1.182c0.542,0.085,1.249-0.485,1.886-0.764c-2.501-2.822,1.56-3.146,2.01-4.805
			c0.269-0.994,0.121-2.056,0.162-3.091c-3.765,1.883-3.605-1.736-4.649-3.668c-0.85-1.568-1.727-3.219-3.396-0.268
			c-2.269,4.01-3.808,3.672-4.957-0.099c-0.214-0.698-0.642-1.414-1.182-1.815c-2.815-2.095-1.786-4.853-0.304-7.791
			c1.154-2.286,4.966-2.419,4.396-6.069c0.85-0.199,2.179-0.888,2.475-0.523c3.314,4.019,4.818,0.367,6.762-2.561
			c1.107-1.665,2.565-3.173,4.068-4.44c2.156-1.818,4.434-2.838,6.322-0.305c1.583,2.127,3.146,0.175,4.065-1.133
			c2.123-3.021,3.889-6.322,5.802-9.509c0.888-0.344,1.776-0.687,2.663-1.031c2.425,1.128,3.534,3.036,3.474,6.252
			c-0.137,7.313,0.039,7.384,6.093,3.933c2.102-1.199,2.603-0.785,2.573,1.522c-0.057,4.561,1.962,9.17-2.224,13.571
			c-0.249,0.261-0.402,1.115-0.233,1.31c1.845,2.084,0.991,3.769-1.023,5.677c-0.288,0.275,0.519,2.13,0.965,3.164
			c0.111,0.255,0.792,0.152,1.211,0.213c-0.113-0.773-0.37-1.546-0.291-2.328c0.058-0.563,0.54-1.57,0.873-1.641
			c2.325-0.51,2.271-0.438,2.191-2.834c-0.042-1.264-0.173-2.712,0.331-3.821c0.557-1.227,1.797-2.165,2.739-3.229
			c0.755,1.277,2.292,2.567,2.107,3.823c-0.415,2.827-1.92,5.609-2.52,8.458c-0.354,1.688,0.171,3.47,0.3,5.207
			c1.085-0.703,2.201-1.353,3.24-2.141c0.508-0.384,1.206-1.051,1.243-1.551c0.279-3.729,5.353-6.651,2.75-10.932
			c-0.69-1.128-0.536-2.939-0.771-4.44c0.794,1.022,1.564,2.073,2.388,3.063c0.659,0.792,1.249,1.796,2.118,2.181
			c0.65,0.292,2.146,0.06,2.49-0.474c2.293-3.573,4.311-2.662,6.463-0.889c0.608,0.499,1.398,0.978,2.171,0.993
			c5.672,0.105,8.088-2.822,7.761-8.402c-0.056-0.944,1.338-2.469,2.335-3.287c0.62-0.506,2.53-0.353,2.536-0.227
			c0.115,2.658,1.053,6.222-0.198,7.865c-2.97,3.896-3.169,6.668-0.672,9.783c0.306,0.377,0.115,1.257,0.142,1.906
			c0.272,6.844,0.784,7.028,6.517,2.345c0.642-0.525,1.249-1.167,1.944-1.545c2.391-1.29,6.416-0.403,6.732,1.619
			c0.625,4.006,0.977,8.109,1.541,12.139c0.117,0.824,0.668,1.511,1.018,2.258c0.467-0.925,1.117-1.826,1.357-2.783
			c0.577-2.321,0.606-4.804,1.512-6.976c1.106-2.648,0.634-11.003-1.054-12.804c-0.817-0.868-1.234-2.185-1.83-3.292
			c1.361-0.074,2.968-0.611,4.026-0.08c1.12,0.555,1.821,2.056,2.54,3.273c1.826,3.095,2.027,7.443,6.558,8.289
			c3.721,0.689,3.86,4.187,0.893,7.701c-0.307,0.36-0.628,0.849-0.674,1.269c-0.024,0.206,0.554,0.597,0.877,0.571
			c2.727-0.233,5.582-4.046,4.339-6.171c-1.7-2.897-0.06-3.966,2.05-5.233c1.215-0.73,2.543-1.331,3.594-2.301
			c3.126-2.883,4.51-2.705,5.322,1.242c0.372,1.808,0.041,3.88,0.213,5.785c0.061,0.677,0.666,1.215,1.023,1.82
			c0.476-0.524,0.975-1.022,1.418-1.574c0.589-0.733,1.302-2.179,1.673-2.129c0.873,0.129,1.655,0.861,2.328,1.524
			c0.942,0.931,0.906,14.46,3.718,12.875c0.776-0.444,0.772-3.013,1.115-4.607c0.38-1.762-0.764-4.448,2.937-3.93
			c1.228,0.172,3.688-1.487,2.12-4.173c-0.137-0.23,1.521-1.871,2.351-2.856c1.048,2.3,2.3,4.499,3.066,6.944
			c0.476,1.51-0.174,3.6,0.343,5.069c1.701,4.867,3.723,9.555,5.584,14.336c0.697,1.79,1.486,1.849,2.236-0.211
			c1.395-3.824,2.411-1.973,3.371-0.279c0.274,0.482,0.012,1.637,0.325,1.774c1.129,0.489,2.396,0.67,3.608,0.966
			c-0.233-0.861-0.529-1.7-0.672-2.593c-0.14-0.864-0.353-2.459-0.143-2.57c2.318-1.228,4.695-2.333,7.105-3.16
			c0.282-0.091,0.71,1.871,1.369,2.534c0.52,0.523,1.641,0.976,2.246,0.668c2.971-1.502,4.249,0.182,5.949,2.067
			c1.279,1.421,3.848,2.945,5.343,2.313c2.815-1.19,5.383-3.745,7.824-6.032c1.791-1.678,1.812-11.862,2.774-9.861
			c0.521,1.087,0.763,2.359,1.208,3.505c0.372,0.953,0.859,1.836,1.293,2.752c0.156-1.06,0.259-2.125,0.479-3.177
			c0.258-1.243,0.618-2.474,0.935-3.708c0.805,0.499,1.671,0.916,2.405,1.517c4.406,3.604,5.401,3.816,9.681-0.504
			c2.315-2.338,6.674,0.546,6.885-4.265c0.028-0.633,0.684-1.331,1.049-1.999c0.393,0.701,0.981,1.328,1.145,2.121
			c0.572,2.787,0.922,2.661,1.535,5.433c0.145,0.654,0.978,1.032,1.498,1.54c0.324-0.913,1.164-2.322,0.897-2.667l4.22,4.143
			c1.168,1.163,2.607,2.185,3.308,3.682c1.734,3.729,2.886,7.752,1.527,12.463c-0.012,0.036,0.887,0.495,1.146,0.318
			c4.192-2.88,8.415-6.233,13.138-4.148c1.418,0.626,2.697,2.495,3.031,4.173c0.261,1.327-1.027,3.243-1.627,4.895
			c-2.541-1.237-4.417-0.319-5.814,2.725c-0.149,0.325-1.231,0.249-1.88,0.355c0.462,0.705,0.774,1.679,1.423,2.053
			c1.104,0.641,2.383,1.055,3.669,1.229c0.473,0.067,1.516-0.697,1.713-1.253c1.895-5.382,3.829-6.344,8.013-3.711
			c1.325,0.835,2.234,1.473,3.74-0.578c2.42-3.288,5.072-3.56,6.629-0.243c1.306,2.786,2.538,2.764,4.823,1.123
			c0.652-0.465,1.514-0.507,2.185-0.953c3.673-2.435,5.469-0.451,7.213,2.356c1.79,2.893,2.189,5.755-0.269,8.987
			c-0.531,0.696-1.415,1.395-2.159,1.545c-4.821,0.962-8.561,6.415-7.648,11.313c0.508,2.737,1.161,5.274-2.754,6.745
			c-2.275,0.853-3.031,4.826-1.601,6.342c4.481,4.762,4.436,6.192-0.388,12.109c-4.952,6.075-4.85,12.207,0.217,16.867
			c0.444,0.409,0.521,1.276,0.77,1.932c-0.824,0.298-1.733,0.949-2.454,0.839c-3.537-0.534-6.918,0.438-10.207,2.488
			c-0.48,0.299-1.134,1.49-1.001,1.729c1.24,2.193,2.56,4.339,4.119,6.235c0.127,0.153,2.116-1.962,3.363-2.463
			c2.046-0.826,4.198-1.426,6.293-1.651c0.943-0.098,2.576,0.752,2.64,1.49c0.373,4.494,3.085-1.228,3.931,0.605
			c-0.312-0.595-0.977-1.206-0.876-1.777c0.339-1.944,0.946-3.874,1.456-5.809c0.822,0.674,1.554,1.527,2.488,1.987
			c1.765,0.871,3.639,1.539,5.5,2.212c0.119,0.042,0.791-0.738,0.745-0.873c-0.633-1.774-1.289-3.537-2.072-5.212
			c-0.354-0.758-1.579-1.613-1.42-1.916c1.139-2.192,2.32-4.503,3.967-6.215c0.575-0.597,2.487,0.414,3.808,0.624
			c0.549,0.086,1.38,0.27,1.679-0.05c0,0,13.051,5.241,13.155-1.028c0.081-0.152,0.138-0.341,0.258-0.443
			c1.768-1.492,3.603-4.082,5.304-4.234c3.584-0.32,4.673-2.742,6.017-5.559c0.316-0.663,1.586-1.581,1.974-1.419
			c2.48,1.065,5.082,2.097,7.021,3.912c0.369,0.344-2.142,4.08-3.128,6.328c-0.585,1.329-1.483,3.544-1.017,4.089
			c1.372,1.613,2.817,0.543,3.892-1.512c1.746-3.34,3.572-6.643,5.443-9.913c1.181-2.065,2.176-5.326,4.702-1.853
			c0.343,0.474,1.679,0.03,2.556,0.015c0.041-0.775,0.228-1.602,0.099-2.314c-0.706-3.959-1.53-7.878-2.195-11.852
			c-0.096-0.581,0.471-1.39,0.727-2.091c2.521,1.449,3.995-1.148,5.272-2.772c2.459-3.129,4.276-1.575,4.561,0.492
			c0.462,3.368,1.999,3.396,4.558,3.063c1.404-0.186,3.729,0.259,4.008,1.212c0.843,2.851,2.223,7.476,0.974,8.913
			c-3.173,3.637-1.515,5.625-0.555,8.321c0.396,1.112,0.66,2.52,0.406,3.734c-1.001,4.843,0.75,4.023,3.684,2.14
			c4.294-2.764,8.85-2.821,10.552,0.553c1.912,3.795,2.78,1.165,3.781-0.739c0.504-0.959,0.338-2.268,0.453-3.423
			c0.225-2.247-0.004,0.551,0.755-1.534c0.985-2.704,2.874-5.131-1.384-5.479c-0.689-0.06-1.146-1.628-1.588-2.585
			c-2.339-5.035,0.861-9.942,2.548-14.72c0.528-1.495,3.091-2.41,4.72-3.592c-0.173,1.671-0.577,3.39-0.473,4.999
			c0.134,2.007,0.681,3.919,1.051,5.877c0.812-0.955,1.557-1.995,2.459-2.822c0.541-0.498,1.664-1.126,1.949-0.898
			c3.329,2.661,0.811,14.521,5.555,12.335c0.422-0.194,1.027,0.543,1.595,0.578c0.677,0.045,1.87-0.001,2.038-0.354
			c1.393-3.023,3.456-1.483,5.227-1.854c0.854-0.181,1.705-0.465,2.561-0.698c-0.265-0.854-0.52-1.711-0.791-2.558
			c-0.779-2.434-1.727-4.797-2.223-7.335c-0.109-0.575,1.348-1.735,2.081-2.622c2.618,3.485,5.925,6.569,7.49,10.66
			c0.579,1.521,0.687,3.808,1.767,5.438c1.395,2.092,3.859,3.503,2.859,7.157c-0.158,0.575,1.066,1.436,1.697,2.115
			c0.632,0.69,1.324,1.317,1.988,1.975c0.57,0.571,1.137,1.151,1.706,1.728c-0.076-1.087,0.039-2.27-0.28-3.226
			c-0.278-0.842-1.114-1.368-1.572-2.134c-1.85-3.101-0.879-5.199,2.797-5.629c1.308-0.152,3.111,0.248,3.769,1.21
			c1.376,2.007,2.663,2.001,4.813,0.766c2.06-1.18,4.323-2.192,6.513-2.581c3.449-0.615,6.146,4.009,5.782,9.333
			c-0.171,2.523-1.022,3.563-3.098,2.08c-0.445-0.323-0.957-0.553-1.439-0.829c-0.016,0.723-0.075,1.452-0.035,2.159
			c0.129,2.189-3.768,3.41-5.169,2.966c-5.184-1.656-2.778,5.086-2.406,6.803c0.532,2.438,1.754,4.624,2.129,7.103
			c0.21,1.368-0.705,3.108-1.11,4.684c-1.033-0.395-2.052-0.831-3.104-1.161c-0.609-0.19-1.278-0.214-1.92-0.312
			c0.01,0.627-0.063,1.277,0.046,1.868c0.679,3.754,1.446,7.476,2.079,11.247c0.223,1.342,0.146,2.789,0.208,4.187
			c-1.145-0.407-2.246-0.976-3.447-1.156c-0.736-0.111-1.622-2.724-2.438-2.504c0.174,1.242,0.365,3.586,0.525,3.563
			c11.977-2.008-1.503,14.65,10.964,0.023c4.447,1.119,5.485-3.391,7.586-6.125c0.479-0.623,0.809-1.374,1.208-2.065
			c0.306,0.793,0.706,1.548,0.892,2.388c0.162,0.73,0.047,1.564,0.118,2.333c0.102,1.059,0.267,2.095,0.401,3.145
			c0.955-0.747,2.127-1.329,2.78-2.297c0.44-0.65-0.072-1.903,0.233-2.773c0.668-1.903,1.518-3.771,2.462-5.564
			c0.203-0.388,1.531-0.723,1.606-0.571c1.45,2.92,2.663,0.645,4.009-0.715c1.99-2.011,4.708-3.222,5.86-0.772
			c0.99,2.108,1.163,5.878,0.01,7.994c-1.241,2.275-4.883,3.175-4.028,7.004c0.054,0.237-0.874,1.251-1.151,1.2
			c-4.162-0.774-3.092,2.797-3.265,4.717c-0.096,1.111,1.114,2.156,1.733,3.234c1.592-1.671,3.484-3.14,4.681-5.067
			c1.021-1.657,1.196-3.847,1.854-5.767c0.162-0.471,0.744-0.824,1.136-1.232c0.23,0.369,0.704,0.737,0.66,1.109
			c-0.355,2.931-0.813,5.864-1.228,8.796c-0.067,0.47-0.09,0.938-0.131,1.409c0.312-0.283,0.594-0.651,0.938-0.853
			c2.99-1.74,11.921-13.76,15.017-15.08c2.443-1.041,4.318,0.886,3.405,2.964c-0.296,0.673-1.102,1.138-1.675,1.693
			c0.862-0.309,1.768-0.489,2.577-0.948c6.106-3.451,6.443-3.158,8.838,2.279c1.605,3.642,0.542,9.069,5.048,10.889
			c0.659,0.267,0.484,2.124,1.029,2.97c2.627,4.099,2.242,10.415,6.973,12.936c0.514,2.488,1.021,4.975,1.531,7.461
			c-0.843,0.719-1.891,2.154-2.496,2.033c-2.981-0.592-4.229,1.096-5.451,3.952c-0.563,1.314-2.327,2.969-3.497,3.098
			c-3.304,0.368-5.354-3.753-9.242-2.111c-0.493,0.208-1.182-0.416-1.783-0.652c0.344,1.76,0.636,3.544,1.081,5.259
			c0.06,0.226,1.188,0.313,1.325,0.105c2.062-3.118,4.624-2.588,6.314-1.153c1.307,1.111,2.563,4.128,1.941,5.494
			c-0.795,1.743-3.497,3.456-5.39,3.772c-2.435,0.403-3.755,1.472-4.312,3.79c-0.655,2.726-0.987,5.502-1.435,8.254
			c-0.095,0.591-0.078,1.181-0.113,1.776c0.481-0.352,1.034-0.628,1.438-1.063c2.446-2.656,3.859-7.287,8.379-5.979
			c0.205,0.057,0.688-0.543,0.987-0.891c3.852-4.47,7.188-4.005,8.406,1.485c0.431,1.936-0.23,4.313-0.394,6.483
			c-2.905-0.92-3.399,2.626-3.319,3.511c0.346,3.685-2.652,3.518-4.061,4.271c-2.249,1.209,14.693-4.819,12.261-4.043
			c-0.669,0.213-1.008,7.287-1.34,8.078c-1.245,2.971,10.215-16.328,15.09-10.578c5.492-7.42,7.921-6.005,7.25-2.875l-3.12,7.877
			c0,0,14.545-3.802,11.245,3.623c-1,2.25-7.262,5.846-5.625,5.125c4.166-1.834,0.917,7.958,0.917,7.958s6.166-3,5.5-2.166
			s4,5.999,4.166,4.166s5.334-0.332,6.834,0.334s5.334,3.833,6,4.333s-1.5,3.333,0,5.5s2.166,7.027,2.666,6.861"/>
		
			<line fill="none" stroke="#A1A844" stroke-width="2" stroke-miterlimit="10" x1="851.3" y1="1259.078" x2="238.531" y2="1259.078"/>
	</g>
</g>
</svg>
